<?xml version="1.0" encoding="UTF-8"?>
<svg width="87px" height="52px" viewBox="0 0 87 52" version="1.1" xmlns="http://www.w3.org/2000/svg" xmlns:xlink="http://www.w3.org/1999/xlink">
    <!-- Generator: Sketch 51.3 (57544) - http://www.bohemiancoding.com/sketch -->
    <title>Logo</title>
    <desc>Created with Sketch.</desc>
    <defs></defs>
    <g id="Logo" stroke="none" stroke-width="1" fill="none" fill-rule="evenodd">
        <g id="FAB-Logo" transform="translate(0.000000, 1.000000)" fill-rule="nonzero">
            <path d="M87,0.0586599242 L62.5098425,13.4508059 L72.3169667,13.4508059 C67.2512231,24.2783239 68.3035345,36.9672294 75.0703157,46.8125969 C72.1503009,29.3434456 79.3019828,12.4283852 87,0.0586599242" id="Fill-40" fill="#DA291C"></path>
            <path d="M3.35806096,50.9228331 L4.16825176,50.9228331 L4.16825176,47.0831173 L3.35806096,47.0831173 L3.35806096,50.9228331 Z M3.25393701,45.9363341 C3.25393701,45.67009 3.47054524,45.4425182 3.76771654,45.4425182 C4.05652751,45.4425182 4.28149606,45.67009 4.28149606,45.9363341 C4.28149606,46.2040656 4.05652751,46.4316373 3.76771654,46.4316373 C3.47054524,46.4316373 3.25393701,46.2040656 3.25393701,45.9363341 Z" id="Fill-42" fill="#FFFFFF"></path>
            <path d="M4.96653543,47.047655 L5.74522389,47.047655 L5.74522389,47.4522107 C5.97824051,47.1745008 6.29015833,46.9838568 6.70309918,46.9838568 C6.81149615,46.9838568 6.9361158,47.007875 7.02165354,47.031893 L7.02165354,47.7531881 C6.92800446,47.7291699 6.79601087,47.6976461 6.62493538,47.6976461 C6.19650924,47.6976461 5.95538128,47.8485101 5.75333523,48.0226417 L5.75333523,50.9228331 L4.96653543,50.9228331 L4.96653543,47.047655 Z" id="Fill-44" fill="#FFFFFF"></path>
            <path d="M7.36417323,50.7122915 L7.36417323,50.0880538 C7.614184,50.1973877 8.05946943,50.3141091 8.4182127,50.3141091 C8.91823426,50.3141091 9.16010858,50.1501082 9.16010858,49.7992054 C9.16010858,49.4793298 8.91823426,49.3936356 8.44927917,49.2296348 C7.88712474,49.0663726 7.37157,48.7701368 7.37157,48.0838448 C7.37157,47.3273721 7.92632763,46.9838568 8.7384928,46.9838568 C9.13717862,46.9838568 9.51145508,47.0695509 9.69933297,47.1471189 L9.69933297,47.7794827 C9.49592189,47.6937886 9.14457539,47.5918421 8.76955919,47.5918421 C8.33241022,47.5918421 8.12160229,47.7477168 8.12160229,48.0291778 C8.12160229,48.3099 8.31687702,48.4192339 8.80876209,48.5751087 C9.33985005,48.746497 9.93307086,48.996192 9.93307086,49.7526646 C9.93307086,50.4854975 9.37091644,50.9228331 8.5358213,50.9228331 C8.0823994,50.9228331 7.63785366,50.8364003 7.36417323,50.7122915" id="Fill-45" fill="#FFFFFF"></path>
            <path d="M10.6523843,49.8139904 L10.6523843,47.5722973 L10.1043307,47.5722973 L10.1043307,46.9863662 L10.6609113,46.9863662 L10.8081959,45.9562977 L11.4795035,45.9562977 L11.4795035,46.9863662 L12.3957685,46.9863662 L12.3957685,47.5722973 L11.4795035,47.5722973 L11.4795035,49.6954537 C11.4795035,50.0998287 11.6260129,50.2731323 11.9949995,50.2731323 C12.1988724,50.2731323 12.3794898,50.2258677 12.5019685,50.178603 L12.5019685,50.8117988 C12.3546839,50.8590635 12.1174783,50.9228331 11.8066303,50.9228331 C11.0446264,50.9228331 10.6523843,50.6219902 10.6523843,49.8139904" id="Fill-46" fill="#FFFFFF"></path>
            <path d="M17.4900877,49.0888845 L17.0078798,47.6543425 C16.8943743,47.3198677 16.7580154,46.9129108 16.7024054,46.6743237 L16.6856462,46.6743237 C16.6216564,46.9129108 16.4845357,47.3198677 16.371792,47.6543425 L15.8652071,49.0888845 L17.4900877,49.0888845 Z M16.2430509,45.9562977 L17.2089903,45.9562977 L19.0098425,50.9228331 L18.0934189,50.9228331 L17.7071956,49.7668943 L15.6404814,49.7668943 L15.2382606,50.9228331 L14.3858268,50.9228331 L16.2430509,45.9562977 Z" id="Fill-47" fill="#FFFFFF"></path>
            <path d="M21.7751625,48.9152453 C21.7751625,48.1426899 21.5427384,47.56101 20.8123678,47.56101 C20.5483164,47.56101 20.2923557,47.656825 20.1364257,47.7926257 L20.1364257,50.197808 C20.2997109,50.2536372 20.5247798,50.285324 20.7344028,50.285324 C21.4640379,50.285324 21.7751625,49.6960997 21.7751625,48.9152453 M19.3523622,50.6595306 L19.3523622,45.4425182 L20.1364257,45.4425182 L20.1364257,47.2660206 C20.2769098,47.1075863 20.6027449,46.900113 21.0536181,46.900113 C22.1554259,46.900113 22.6062992,47.7843268 22.6062992,48.8752595 C22.6062992,49.9986335 21.9465385,50.9228331 20.7189569,50.9228331 C20.2063,50.9228331 19.7017338,50.8028759 19.3523622,50.6595306" id="Fill-48" fill="#FFFFFF"></path>
            <path d="M23.1200788,49.5520364 L23.1200788,46.9838568 L23.9026045,46.9838568 L23.9026045,49.4251663 C23.9026045,49.9641762 24.0663717,50.2809759 24.6377044,50.2809759 C24.943008,50.2809759 25.2245988,50.138341 25.4128199,50.011471 L25.4128199,46.9838568 L26.2027559,46.9838568 L26.2027559,50.8597735 L25.4202302,50.8597735 L25.4202302,50.5504809 C25.232009,50.7006229 24.8652001,50.9228331 24.364265,50.9228331 C23.4335337,50.9228331 23.1200788,50.3365285 23.1200788,49.5520364" id="Fill-49" fill="#FFFFFF"></path>
            <path d="M30.3960549,50.2371688 C31.6904942,50.2371688 32.0078988,49.399722 32.0078988,48.4437187 C32.0078988,47.4862051 31.7062892,46.625349 30.44344,46.625349 L29.7687671,46.625349 L29.7687671,50.2371688 L30.3960549,50.2371688 Z M28.9429134,45.9562977 L30.5389623,45.9562977 C32.2388069,45.9562977 32.8818898,47.1516794 32.8818898,48.4437187 C32.8818898,49.6632648 32.2628755,50.9228331 30.5148937,50.9228331 L28.9429134,50.9228331 L28.9429134,45.9562977 Z" id="Fill-50" fill="#FFFFFF"></path>
            <path d="M33.5669291,45.4425182 L34.3413036,45.4425182 L34.3413036,47.2380867 C34.536935,47.0901815 34.8970747,46.8712819 35.3980097,46.8712819 C36.3287411,46.8712819 36.6496063,47.4488515 36.6496063,48.2223953 L36.6496063,50.7515733 L35.8589293,50.7515733 L35.8589293,48.3466357 C35.8589293,47.8163957 35.7025723,47.5035764 35.1312396,47.5035764 C34.8185257,47.5035764 34.536935,47.6440862 34.3576062,47.7690661 L34.3576062,50.7515733 L33.5669291,50.7515733 L33.5669291,45.4425182 Z" id="Fill-51" fill="#FFFFFF"></path>
            <path d="M39.3330862,50.073279 L39.3330862,49.1845715 C39.2763319,49.1845715 39.1306115,49.1757065 39.0255394,49.1757065 C38.3536916,49.1757065 37.9886236,49.3559598 37.9886236,49.7844306 C37.9886236,50.1360721 38.2317466,50.3303615 38.636696,50.3303615 C38.9365733,50.3303615 39.1873658,50.2136401 39.3330862,50.073279 M39.4389252,50.4943624 C39.260226,50.7130302 38.8713826,50.9228331 38.4020094,50.9228331 C37.6565344,50.9228331 37.1633858,50.5180021 37.1633858,49.8464849 C37.1633858,49.0589852 37.8513396,48.6770552 38.9450098,48.6770552 C39.0738572,48.6770552 39.2280141,48.6851814 39.3330862,48.6925687 L39.3330862,48.3882068 C39.3330862,47.8422759 39.1060692,47.6162206 38.5231874,47.6162206 C38.1105686,47.6162206 37.7623735,47.732942 37.5269199,47.8348884 L37.5269199,47.1951372 C37.8030218,47.0858032 38.2072043,46.9838568 38.6689079,46.9838568 C39.6007516,46.9838568 40.1514214,47.3665255 40.1514214,48.2559718 L40.1514214,49.9875848 C40.1514214,50.2291537 40.264163,50.3067217 40.4420953,50.3067217 C40.4835106,50.3067217 40.5394979,50.2993343 40.5885826,50.2912081 L40.5885826,50.837139 C40.4911801,50.8770311 40.3615656,50.9228331 40.1261121,50.9228331 C39.7786839,50.9228331 39.5439974,50.759571 39.4389252,50.4943624" id="Fill-52" fill="#FFFFFF"></path>
            <path d="M43.3546382,48.9152453 C43.3546382,48.1426899 43.1214786,47.56101 42.3918435,47.56101 C42.1270566,47.56101 41.8718314,47.656825 41.7159014,47.7926257 L41.7159014,50.197808 C41.8791866,50.2536372 42.1042555,50.285324 42.3138785,50.285324 C43.0435135,50.285324 43.3546382,49.6960997 43.3546382,48.9152453 M40.9311023,50.6595306 L40.9311023,45.4425182 L41.7159014,45.4425182 L41.7159014,47.2660206 C41.85565,47.1075863 42.1814851,46.900113 42.6323583,46.900113 C43.7349016,46.900113 44.1850394,47.7843268 44.1850394,48.8752595 C44.1850394,49.9986335 43.5252787,50.9228331 42.2984326,50.9228331 C41.7857757,50.9228331 41.2812095,50.8028759 40.9311023,50.6595306" id="Fill-53" fill="#FFFFFF"></path>
            <path d="M44.8029429,50.9228331 L45.6138937,50.9228331 L45.6138937,47.0831173 L44.8029429,47.0831173 L44.8029429,50.9228331 Z M44.6988189,45.9363341 C44.6988189,45.67009 44.9154271,45.4425182 45.2125984,45.4425182 C45.5014094,45.4425182 45.726378,45.67009 45.726378,45.9363341 C45.726378,46.2040656 45.5014094,46.4316373 45.2125984,46.4316373 C44.9154271,46.4316373 44.6988189,46.2040656 44.6988189,45.9363341 Z" id="Fill-54" fill="#FFFFFF"></path>
            <path d="M50.0955741,50.2614338 C50.6835035,50.2614338 50.9936532,49.9828306 50.9936532,49.4641304 C50.9936532,48.9303298 50.7075928,48.6351162 50.1113827,48.6351162 L49.2923466,48.6351162 L49.2923466,50.2614338 L50.0955741,50.2614338 Z M50.0714848,48.0371386 C50.6443584,48.0371386 50.9055767,47.774391 50.9055767,47.3040122 C50.9055767,46.8970553 50.6518863,46.6184521 50.0797655,46.6184521 L49.2923466,46.6184521 L49.2923466,48.0371386 L50.0714848,48.0371386 Z M48.4665354,45.9562977 L50.1670892,45.9562977 C51.1923899,45.9562977 51.7328935,46.4591425 51.7328935,47.2164296 C51.7328935,47.8061019 51.3504759,48.1964483 50.929666,48.3089466 L50.929666,48.3240471 C51.4701696,48.4357903 51.8917323,48.8261368 51.8917323,49.4882911 C51.8917323,50.3573216 51.2556243,50.9228331 50.214515,50.9228331 L48.4665354,50.9228331 L48.4665354,45.9562977 Z" id="Fill-55" fill="#FFFFFF"></path>
            <path d="M54.4042334,50.073279 L54.4042334,49.1845715 C54.3474918,49.1845715 54.201804,49.1757065 54.0967554,49.1757065 C53.4242913,49.1757065 53.0600718,49.3559598 53.0600718,49.7844306 C53.0600718,50.1360721 53.3031404,50.3303615 53.7079991,50.3303615 C54.0078093,50.3303615 54.2585456,50.2136401 54.4042334,50.073279 M54.5100488,50.4943624 C54.3313895,50.7130302 53.9426331,50.9228331 53.473365,50.9228331 C52.7280569,50.9228331 52.234252,50.5180021 52.234252,49.8464849 C52.234252,49.0589852 52.9228185,48.6770552 54.0162438,48.6770552 C54.1450625,48.6770552 54.2991848,48.6851814 54.4042334,48.6925687 L54.4042334,48.3882068 C54.4042334,47.8422759 54.1772672,47.6162206 53.5945159,47.6162206 C53.1819895,47.6162206 52.8338723,47.732942 52.5984715,47.8348884 L52.5984715,47.1951372 C52.8745115,47.0858032 53.2793703,46.9838568 53.7402037,46.9838568 C54.6710721,46.9838568 55.2216186,47.3665255 55.2216186,48.2559718 L55.2216186,49.9875848 C55.2216186,50.2291537 55.3351017,50.3067217 55.5129943,50.3067217 C55.5536335,50.3067217 55.6103751,50.2993343 55.6594488,50.2912081 L55.6594488,50.837139 C55.562068,50.8770311 55.4324825,50.9228331 55.1970818,50.9228331 C54.8497314,50.9228331 54.6143305,50.759571 54.5100488,50.4943624" id="Fill-56" fill="#FFFFFF"></path>
            <path d="M56.0019685,47.047655 L56.776343,47.047655 L56.776343,47.3568886 C56.9719744,47.2060246 57.3321141,46.9838568 57.8330491,46.9838568 C58.7637804,46.9838568 59.0846457,47.5708003 59.0846457,48.3551429 L59.0846457,50.9228331 L58.2947096,50.9228331 L58.2947096,48.4819888 C58.2947096,47.9438321 58.1376116,47.6263422 57.56702,47.6263422 C57.2535651,47.6263422 56.9719744,47.76895 56.7926455,47.8957959 L56.7926455,50.9228331 L56.0019685,50.9228331 L56.0019685,47.047655 Z" id="Fill-57" fill="#FFFFFF"></path>
            <path d="M61.8236886,50.3779888 L60.7329752,48.9119172 L60.7329752,50.890962 L59.9409449,50.890962 L59.9409449,45.4425182 L60.7329752,45.4425182 L60.7329752,48.6873017 L62.0904231,46.9730908 L62.9612106,46.9730908 L61.5257486,48.7351084 L62.5302748,50.0494127 C62.6550976,50.2178743 62.7568877,50.2899637 62.930005,50.2899637 C62.9456078,50.2899637 62.9612106,50.2899637 63.023622,50.2816166 L63.023622,50.890962 C62.9456078,50.9144859 62.8594206,50.9228331 62.7888363,50.9228331 C62.412139,50.9228331 62.1379746,50.8105254 61.8236886,50.3779888" id="Fill-58" fill="#FFFFFF"></path>
            <polygon id="Fill-59" fill="#FFFFFF" points="0 45.9562977 2.91141732 45.9562977 2.91141732 46.641962 0.84102505 46.641962 0.84102505 48.0049841 2.69311847 48.0049841 2.69311847 48.6513813 0.84102505 48.6513813 0.84102505 50.9228331 0 50.9228331"></polygon>
            <path d="M43.3287402,13.4169277 L53.8255728,13.4169277 C59.8054731,13.4169277 63.037629,16.2492458 63.037629,20.4535851 C63.037629,23.8611945 60.9569801,25.9416692 58.6973909,26.5603504 L58.6973909,26.6501227 C61.6652543,27.3136902 63.8799212,29.3926686 63.8799212,32.9783266 C63.8799212,38.0235336 60.0705144,40.9897623 54.0913628,40.9897623 L43.3287402,40.9897623 L43.3287402,13.4169277 Z M53.0282028,24.6586724 C55.7744498,24.6586724 56.9259568,23.4190656 56.9259568,21.2944529 C56.9259568,19.3920268 55.731025,18.1516719 53.0723764,18.1516719 L49.3969876,18.1516719 L49.3969876,24.6586724 L53.0282028,24.6586724 Z M53.1607234,36.2535218 C55.8627969,36.2535218 57.3242674,35.0146631 57.3242674,32.5803357 C57.3242674,30.1018703 55.951144,28.8181254 53.2056457,28.8181254 L49.3969876,28.8181254 L49.3969876,36.2535218 L53.1607234,36.2535218 Z" id="Fill-60" fill="#FFFFFF"></path>
            <path d="M24.5754391,13.4169277 L31.3497115,13.4169277 L41.4448819,40.9897623 L34.8479934,40.9897623 L33.0771472,35.5016782 L22.3173482,35.5016782 L20.4574358,40.9897623 L14.2145669,40.9897623 L24.5754391,13.4169277 Z M31.4821882,30.6330234 L29.1806869,23.5514798 C28.648535,21.9138823 28.1178798,20.3211708 27.8080192,19.038174 L27.7197014,19.038174 C27.3656819,20.2770327 26.8335299,21.9587684 26.3021263,23.5514798 L23.9115589,30.6330234 L31.4821882,30.6330234 Z" id="Fill-61" fill="#FFFFFF"></path>
            <polygon id="Fill-62" fill="#FFFFFF" points="0 13.4169277 16.9547244 13.4169277 16.9547244 18.4179966 6.08125155 18.4179966 6.08125155 24.8352247 15.7572318 24.8352247 15.7572318 29.4375547 6.08125155 29.4375547 6.08125155 40.9897623 0 40.9897623"></polygon>
            <path d="M6.60374637,6.7008258 L5.73907954,6.7008258 C5.49985255,6.7008258 5.29512224,6.61557311 5.12563855,6.44506771 C4.95540492,6.27380786 4.87066308,6.06935228 4.87066308,5.83094651 L4.87066308,5.29000683 C4.87066308,5.04933771 4.95540492,4.84488213 5.12563855,4.67664008 C5.29512224,4.50538024 5.49985255,4.42012754 5.73907954,4.42012754 C5.97605675,4.42012754 6.18003713,4.50538024 6.34952082,4.67664008 C6.51900452,4.84488213 6.60374637,5.04933771 6.60374637,5.29000683 L6.60374637,6.7008258 Z M5.73907954,3.65511662 C5.28987276,3.65511662 4.90665961,3.81581418 4.58794027,4.13645485 C4.26922093,4.45407773 4.11023622,4.83884654 4.11023622,5.29000683 L4.11023622,5.83094651 C4.11023622,6.2821068 4.26922093,6.66763006 4.58794027,6.98902518 C4.90665961,7.30664806 5.28987276,7.46583672 5.73907954,7.46583672 L6.60374637,7.46583672 C6.59249746,7.66652006 6.51225517,7.83928883 6.36301953,7.9818796 C6.21453381,8.12371593 6.03980062,8.19538853 5.84031981,8.19538853 L4.98240233,8.19538853 C4.91940839,8.19538853 4.88791141,8.22782983 4.88791141,8.29346686 L4.88791141,8.86533896 C4.88791141,8.93097599 4.91940839,8.96417173 4.98240233,8.96417173 L5.84031981,8.96417173 C6.25427999,8.96417173 6.61124565,8.81177313 6.91046687,8.50773031 C7.21343773,8.20595087 7.36417323,7.84683327 7.36417323,7.43037764 L7.36417323,5.29000683 C7.36417323,4.83884654 7.20593845,4.45407773 6.89021882,4.13645485 C6.57149948,3.81581418 6.18753641,3.65511662 5.73907954,3.65511662 Z" id="Fill-63" fill="#FFFFFF"></path>
            <path d="M11.5500188,1.94251819 L10.9886243,1.94251819 C10.9268194,1.94251819 10.8966528,1.97351351 10.8966528,2.03550415 L10.8966528,5.94460408 C10.8966528,6.14607365 10.8532421,6.28998048 10.766421,6.37632458 C10.6795998,6.45897876 10.5361241,6.50104383 10.3352582,6.50325778 L8.13529801,6.50325778 C8.07864354,6.50325778 8.04921259,6.53572907 8.04921259,6.59993365 L8.04921259,7.15932534 C8.04921259,7.220578 8.0808508,7.25157331 8.14191995,7.25157331 L10.3352582,7.25157331 C10.7436121,7.25157331 11.0644089,7.13497187 11.296913,6.90176901 C11.5294172,6.67078009 11.6456693,6.35049515 11.6456693,5.94091417 L11.6456693,2.03550415 C11.6456693,1.97351351 11.614031,1.94251819 11.5500188,1.94251819" id="Fill-64" fill="#FFFFFF"></path>
            <path d="M9.1608875,2.62755756 C9.10436168,2.62755756 9.07677167,2.65957134 9.07677167,2.72359889 L9.07677167,6.299995 C9.07677167,6.36402255 9.10436168,6.3952741 9.1608875,6.3952741 L9.67433055,6.3952741 C9.73287516,6.3952741 9.76181106,6.36402255 9.76181106,6.299995 L9.76181106,2.72359889 C9.76181106,2.65957134 9.73287516,2.62755756 9.67433055,2.62755756 L9.1608875,2.62755756 Z" id="Fill-65" fill="#FFFFFF"></path>
            <path d="M8.81042279,2.11377803 L10.2001665,2.11377803 C10.2502003,2.11377803 10.2755906,2.08933801 10.2755906,2.03973915 L10.2755906,1.82265427 C10.2755906,1.77449306 10.2502003,1.74933421 10.2001665,1.74933421 L9.40111983,1.74933421 L9.40111983,1.34176095 C9.40111983,1.27706678 9.42501658,1.22243615 9.4735568,1.17786906 C9.52060348,1.13330196 9.57661146,1.11101841 9.64382096,1.11101841 C9.75060946,1.11101841 9.82304635,1.15774198 9.86262535,1.25118911 L9.90743166,1.35182449 C9.9171397,1.36907626 9.93058159,1.38273392 9.94626384,1.39207864 C9.95746543,1.39639158 9.96792022,1.39854805 9.97762826,1.39854805 C9.98882986,1.39854805 9.99928472,1.39639158 10.0082459,1.39207864 L10.2173423,1.30438209 C10.2494535,1.28928679 10.2658825,1.26915971 10.2658825,1.24471969 C10.2658825,1.23321851 10.2628954,1.22243615 10.2584148,1.21093496 L10.2136084,1.11101841 C10.1068199,0.86589939 9.9171397,0.743699294 9.64382096,0.743699294 C9.47281007,0.743699294 9.32569584,0.802642868 9.20247835,0.920530023 C9.08224797,1.0362607 9.02250615,1.17715023 9.02250615,1.34176095 L9.02250615,1.74933421 L8.81042279,1.74933421 C8.75964227,1.74933421 8.73425198,1.77449306 8.73425198,1.82265427 L8.73425198,2.03973915 C8.73425198,2.08933801 8.75964227,2.11377803 8.81042279,2.11377803" id="Fill-66" fill="#FFFFFF"></path>
            <path d="M13.1024769,1.94251819 L12.5898808,1.94251819 C12.5310472,1.94251819 12.5019685,1.97498948 12.5019685,2.03845608 L12.5019685,7.15932534 C12.5019685,7.220578 12.5310472,7.25157331 12.5898808,7.25157331 L13.1024769,7.25157331 C13.1592817,7.25157331 13.1870079,7.220578 13.1870079,7.15932534 L13.1870079,2.03845608 C13.1870079,1.97498948 13.1592817,1.94251819 13.1024769,1.94251819" id="Fill-67" fill="#FFFFFF"></path>
            <path d="M18.8920157,8.96417173 L18.4145433,8.96417173 C18.3549449,8.96417173 18.3248031,8.9929434 18.3248031,9.05048666 L18.3248031,9.55673081 C18.3248031,9.61632919 18.3549449,9.64578593 18.4145433,9.64578593 L18.8920157,9.64578593 C18.9495591,9.64578593 18.9783307,9.61632919 18.9783307,9.55673081 L18.9783307,9.05048666 C18.9783307,8.9929434 18.9495591,8.96417173 18.8920157,8.96417173" id="Fill-68" fill="#FFFFFF"></path>
            <path d="M17.6897717,8.96417173 L17.2122992,8.96417173 C17.1540709,8.96417173 17.1259843,8.9929434 17.1259843,9.05048666 L17.1259843,9.55673081 C17.1259843,9.61632919 17.1540709,9.64578593 17.2122992,9.64578593 L17.6897717,9.64578593 C17.7473149,9.64578593 17.7754016,9.61632919 17.7754016,9.55673081 L17.7754016,9.05048666 C17.7754016,8.9929434 17.7473149,8.96417173 17.6897717,8.96417173" id="Fill-69" fill="#FFFFFF"></path>
            <path d="M28.4825669,8.10787253 L28.0016693,8.10787253 C27.944126,8.10787253 27.9153543,8.1366442 27.9153543,8.19418747 L27.9153543,8.70043161 C27.9153543,8.76003 27.944126,8.78948666 28.0016693,8.78948666 L28.4825669,8.78948666 C28.5401102,8.78948666 28.5688819,8.76003 28.5688819,8.70043161 L28.5688819,8.19418747 C28.5688819,8.1366442 28.5401102,8.10787253 28.4825669,8.10787253" id="Fill-70" fill="#FFFFFF"></path>
            <path d="M33.6673593,6.02440473 C33.6673593,6.23253343 33.6233787,6.37958089 33.5354177,6.46630118 C33.4496929,6.55528374 33.3043334,6.60052911 33.0985939,6.60279138 L31.0188359,6.60279138 L31.0188359,5.3721173 C31.2499201,5.1059237 31.5592748,4.86461506 31.9461545,4.64743727 C32.3330342,4.43176767 32.6356801,4.32317879 32.852601,4.32317879 C33.1716463,4.32317879 33.3990034,4.45439036 33.5354177,4.71605942 C33.6233787,4.88422138 33.6673593,5.09008782 33.6673593,5.33365873 L33.6673593,6.02440473 Z M32.852601,3.55551566 C32.3494337,3.55551566 31.7374332,3.83603696 31.0188359,4.39707956 L31.0188359,2.04054983 C31.0188359,1.97494404 30.9867822,1.94251819 30.9219296,1.94251819 L30.3531641,1.94251819 C30.2905478,1.94251819 30.2599851,1.97494404 30.2599851,2.04054983 L30.2599851,6.60279138 L29.6442574,6.60279138 L29.4019917,6.60279138 L29.1209634,6.60279138 C28.9524956,6.60279138 28.841426,6.57866051 28.7885003,6.52889061 C28.7721008,6.50551383 28.763901,6.47308799 28.763901,6.43161306 L28.763901,3.79757839 C28.763901,3.73423487 28.7318474,3.70256312 28.6669947,3.70256312 L28.0982294,3.70256312 C28.0378493,3.70256312 28.008032,3.73423487 28.008032,3.79757839 L28.008032,6.33659778 C28.008032,6.43689169 27.9886507,6.50702201 27.9491428,6.54698876 C27.9096348,6.58469323 27.8455276,6.60279138 27.7553302,6.60279138 L26.766886,6.60279138 L22.6073699,6.60279138 L21.9349893,6.60279138 L21.9349893,4.87064777 C21.9349893,4.50793072 21.8075203,4.19875401 21.5533276,3.94160949 C21.3013713,3.68371088 20.9949984,3.55551566 20.6349542,3.55551566 C20.2764009,3.55551566 19.9715188,3.68371088 19.7195625,3.94160949 C19.4653698,4.19875401 19.3386463,4.50793072 19.3386463,4.87064777 L19.3386463,7.51523969 L17.2409978,7.51523969 C16.9964958,7.51523969 16.783302,7.42625713 16.6029072,7.248292 C16.4277304,7.07032688 16.3397693,6.85541136 16.3397693,6.60279138 C16.3397693,6.42482625 16.3859861,6.26043474 16.4784199,6.10810866 C16.5708535,5.9542744 16.6945954,5.83814462 16.8489,5.76122749 L17.1030927,5.62775364 C17.1418552,5.60965549 17.1612364,5.58477054 17.1612364,5.55460696 C17.1612364,5.53801699 17.155273,5.52067293 17.1448369,5.50182069 L16.8876625,4.98979391 C16.876481,4.96641713 16.8578453,4.94982717 16.8325005,4.9407781 C16.8228099,4.93625356 16.8123738,4.93399129 16.8011923,4.93399129 C16.7870291,4.93399129 16.7736113,4.93851583 16.7594481,4.9475649 L16.5060009,5.07726829 C16.2264635,5.22280757 16.0020882,5.43319854 15.8336203,5.70919531 C15.6673888,5.98670025 15.5846457,6.2853197 15.5846457,6.60279138 C15.5846457,7.06806461 15.7464046,7.46471569 16.0691771,7.79199055 C16.3926951,8.11700315 16.776593,8.27913234 17.2201257,8.27913234 L19.7165808,8.27913234 C19.8201959,8.27913234 19.9089025,8.24218198 19.9834458,8.166773 C20.0572436,8.09211814 20.0945153,8.00162744 20.0945153,7.89680899 L20.0945153,4.87064777 C20.0945153,4.71832169 20.1474411,4.58861829 20.2540379,4.48153758 C20.3598894,4.37370278 20.486613,4.32016243 20.6349542,4.32016243 C20.7855317,4.32016243 20.9130007,4.37370278 21.0195977,4.48153758 C21.1261945,4.58861829 21.1791203,4.71832169 21.1791203,4.87064777 L21.1791203,6.98511476 C21.1791203,7.09294956 21.216392,7.18268622 21.2901898,7.25507881 C21.3639877,7.33048776 21.4526942,7.36743815 21.5570549,7.36743815 L22.6073699,7.36743815 L26.766886,7.36743815 L27.751603,7.36743815 C28.035613,7.36743815 28.2681881,7.2844883 28.4485829,7.1185886 C28.6446317,7.2844883 28.9152239,7.36743815 29.259614,7.36743815 L29.4019917,7.36743815 L29.6442574,7.36743815 L33.0985939,7.36743815 C33.5145455,7.36743815 33.8395543,7.248292 34.0728749,7.00999972 C34.3061954,6.7739697 34.4232283,6.44518667 34.4232283,6.02440473 L34.4232283,5.33365873 C34.4232283,4.80277971 34.2786143,4.37370278 33.9893864,4.04642793 C33.7009037,3.71915308 33.3214783,3.55551566 32.852601,3.55551566 Z" id="Fill-71" fill="#FFFFFF"></path>
            <path d="M32.2831654,2.96665205 L32.7606378,2.96665205 C32.8202362,2.96665205 32.850378,2.9378804 32.850378,2.88033709 L32.850378,2.37409299 C32.850378,2.31449457 32.8202362,2.28503788 32.7606378,2.28503788 L32.2831654,2.28503788 C32.225622,2.28503788 32.1968504,2.31449457 32.1968504,2.37409299 L32.1968504,2.88033709 C32.1968504,2.9378804 32.225622,2.96665205 32.2831654,2.96665205" id="Fill-72" fill="#FFFFFF"></path>
            <path d="M37.5880111,6.7008258 L36.7270824,6.7008258 C36.4911297,6.7008258 36.2880312,6.61557311 36.1192802,6.44506771 C35.9497825,6.27380786 35.8654071,6.06935228 35.8654071,5.83094651 L35.8654071,5.29000683 C35.8654071,5.04933771 35.9497825,4.84488213 36.1192802,4.67664008 C36.2880312,4.50538024 36.4911297,4.42012754 36.7270824,4.42012754 C36.9652752,4.42012754 37.1683737,4.50538024 37.3341379,4.67664008 C37.5036356,4.84488213 37.5880111,5.04933771 37.5880111,5.29000683 L37.5880111,6.7008258 Z M43.5771775,3.79921631 L43.0082029,3.79921631 C42.9454813,3.79921631 42.9141205,3.83090315 42.9141205,3.89427684 L42.9141205,6.43375098 C42.9141205,6.5348471 42.8947067,6.60501082 42.8551323,6.64424215 C42.8185447,6.68196458 42.7483563,6.7008258 42.646807,6.7008258 L41.7336104,6.7008258 L39.0223944,6.7008258 L38.3488838,6.7008258 L38.3488838,5.29000683 C38.3488838,4.83884654 38.1898398,4.45407773 37.8732451,4.13645485 C37.5551569,3.81581418 37.1736005,3.65511662 36.7270824,3.65511662 C36.2798176,3.65511662 35.8990079,3.81581418 35.5839066,4.13645485 C35.2673118,4.45407773 35.1082677,4.83884654 35.1082677,5.29000683 L35.1082677,5.83094651 C35.1082677,6.2821068 35.2673118,6.66763006 35.5839066,6.98902518 C35.8990079,7.30664806 36.2798176,7.46583672 36.7270824,7.46583672 L37.5880111,7.46583672 C37.5760641,7.66652006 37.4976621,7.83928883 37.3520584,7.9818796 C37.2012279,8.12371593 37.0279968,8.19538853 36.8308717,8.19538853 L35.9736765,8.19538853 C35.9109549,8.19538853 35.8795941,8.22782983 35.8795941,8.29346686 L35.8795941,8.86533896 C35.8795941,8.93097599 35.9109549,8.96417173 35.9736765,8.96417173 L36.8308717,8.96417173 C37.234082,8.96417173 37.5842776,8.81629983 37.8829519,8.52206483 C38.1816263,8.22707539 38.3369369,7.87474787 38.3488838,7.46583672 L39.0223944,7.46583672 L41.7336104,7.46583672 L42.646807,7.46583672 C42.9566816,7.46583672 43.2060747,7.37303954 43.3934928,7.18819962 C43.5786708,6.99656966 43.6712598,6.74533827 43.6712598,6.43375098 L43.6712598,3.89427684 C43.6712598,3.83090315 43.6398991,3.79921631 43.5771775,3.79921631 Z" id="Fill-73" fill="#FFFFFF"></path>
            <path d="M43.0396535,8.10787253 L42.5621811,8.10787253 C42.5025826,8.10787253 42.4724409,8.1366442 42.4724409,8.19418747 L42.4724409,8.70043161 C42.4724409,8.76003 42.5025826,8.78948666 42.5621811,8.78948666 L43.0396535,8.78948666 C43.0971969,8.78948666 43.1259685,8.76003 43.1259685,8.70043161 L43.1259685,8.19418747 C43.1259685,8.1366442 43.0971969,8.10787253 43.0396535,8.10787253" id="Fill-74" fill="#FFFFFF"></path>
            <path d="M45.6527304,1.06159811 L44.8561341,1.06159811 L44.8561341,0.65390555 C44.8561341,0.588732672 44.8794308,0.534421939 44.9260242,0.488800924 C44.971866,0.443904052 45.029732,0.422179759 45.0973675,0.422179759 C45.2018269,0.422179759 45.2739714,0.468524917 45.3138013,0.563387663 L45.3588916,0.664043553 C45.3731702,0.69590585 45.3942124,0.711112855 45.4220181,0.711112855 C45.4340422,0.711112855 45.4453148,0.708940425 45.4573389,0.704595567 L45.670015,0.620594967 C45.6888027,0.61407768 45.7015783,0.599594818 45.7090933,0.577146382 C45.7128509,0.567732522 45.7158569,0.559042805 45.7158569,0.549628944 C45.7158569,0.540939227 45.7128509,0.531525367 45.7090933,0.52283565 L45.667009,0.422179759 C45.5595436,0.179591821 45.3694127,0.0586599242 45.0973675,0.0586599242 C44.9245211,0.0586599242 44.7779775,0.116591372 44.6569851,0.233178411 C44.5352411,0.349765449 44.4751206,0.49024921 44.4751206,0.65390555 L44.4751206,1.06159811 L44.2624444,1.06159811 C44.2105906,1.06159811 44.1850394,1.08621898 44.1850394,1.13618485 L44.1850394,1.35487607 C44.1850394,1.4041178 44.2105906,1.42873867 44.2624444,1.42873867 L45.6527304,1.42873867 C45.7015783,1.42873867 45.726378,1.4041178 45.726378,1.35487607 L45.726378,1.13618485 C45.726378,1.08621898 45.7015783,1.06159811 45.6527304,1.06159811" id="Fill-75" fill="#FFFFFF"></path>
            <path d="M45.1277323,1.94251819 L44.6164987,1.94251819 C44.557432,1.94251819 44.5275591,1.97351351 44.5275591,2.03550415 L44.5275591,7.15932534 C44.5275591,7.220578 44.557432,7.25157331 44.6164987,7.25157331 L45.1277323,7.25157331 C45.1847623,7.25157331 45.2125984,7.220578 45.2125984,7.15932534 L45.2125984,2.03550415 C45.2125984,1.97351351 45.1847623,1.94251819 45.1277323,1.94251819" id="Fill-76" fill="#FFFFFF"></path>
            <path d="M49.5704132,4.68267567 L50.9628555,4.68267567 C51.0107417,4.68267567 51.0354331,4.65823565 51.0354331,4.60863679 L51.0354331,4.38867661 C51.0354331,4.33979658 51.0107417,4.31463773 50.9628555,4.31463773 L50.1652502,4.31463773 L50.1652502,3.91065858 C50.1652502,3.84596441 50.1884451,3.78989613 50.2348348,3.74317257 C50.2819729,3.69860548 50.3380896,3.67632193 50.4054296,3.67632193 C50.5146701,3.67632193 50.5872477,3.72304549 50.6246589,3.81649263 L50.6695522,3.92072212 C50.6837685,3.94947509 50.7054669,3.96385157 50.736144,3.96385157 C50.7473674,3.96385157 50.7608354,3.96169509 50.7743034,3.95738215 L50.9830575,3.87327974 C50.9965255,3.86681032 51.0099935,3.85387148 51.0212168,3.83374441 C51.0242097,3.82511851 51.024958,3.81577381 51.024958,3.80714792 C51.024958,3.79564673 51.0242097,3.78558319 51.0212168,3.77623848 L50.9763235,3.67632193 C50.8693277,3.43335938 50.6792791,3.31259693 50.4054296,3.31259693 C50.2340866,3.31259693 50.087435,3.37010286 49.9669712,3.48583354 C49.8465073,3.60372069 49.7866496,3.74604786 49.7866496,3.91065858 L49.7866496,4.31463773 L49.5704132,4.31463773 C49.5195341,4.31463773 49.4940945,4.33979658 49.4940945,4.38867661 L49.4940945,4.60863679 C49.4940945,4.65823565 49.5195341,4.68267567 49.5704132,4.68267567" id="Fill-77" fill="#FFFFFF"></path>
            <path d="M59.6847402,2.9639119 L60.1663228,2.9639119 C60.2231811,2.9639119 60.2519528,2.93514024 60.2519528,2.87759693 L60.2519528,2.37135284 C60.2519528,2.31380953 60.2231811,2.28503788 60.1663228,2.28503788 L59.6847402,2.28503788 C59.6271969,2.28503788 59.5984252,2.31380953 59.5984252,2.37135284 L59.5984252,2.87759693 C59.5984252,2.93514024 59.6271969,2.9639119 59.6847402,2.9639119" id="Fill-78" fill="#FFFFFF"></path>
            <path d="M62.9305551,3.66571025 L62.362474,3.66571025 C62.3006775,3.66571025 62.269407,3.69670557 62.269407,3.75869621 L62.269407,6.2434875 C62.269407,6.34163934 62.2500491,6.41027183 62.2105886,6.44938497 C62.1733619,6.48554618 62.1048645,6.50399577 62.0028631,6.50399577 L61.1265442,6.50399577 L60.8845699,6.50399577 L60.5867555,6.50399577 C60.4251911,6.50399577 60.3209561,6.47890432 60.2747948,6.42872143 C60.2539479,6.41027183 60.2435243,6.37780055 60.2435243,6.33204556 L60.2435243,3.75500629 C60.2435243,3.6908017 60.2122538,3.6590684 60.1504574,3.6590684 L59.5823763,3.6590684 C59.5205798,3.6590684 59.4893093,3.6908017 59.4893093,3.75500629 L59.4893093,6.23610767 C59.4893093,6.33942539 59.4699514,6.40805788 59.4334691,6.44200513 C59.3947533,6.48111827 59.3299786,6.50178182 59.2398897,6.50399577 L53.5479114,6.50399577 L53.3051926,6.50399577 L53.0081228,6.50399577 C52.8435803,6.50399577 52.7386007,6.47890432 52.6924395,6.42872143 C52.6738261,6.41469974 52.6648917,6.38296643 52.6648917,6.33204556 L52.6648917,2.03550415 C52.6648917,1.9742515 52.6336211,1.94251819 52.5710801,1.94251819 L52.0037436,1.94251819 C51.938969,1.94251819 51.9062094,1.9742515 51.9062094,2.03550415 L51.9062094,6.23610767 C51.9062094,6.34163934 51.8883405,6.41100981 51.8511137,6.44569505 C51.8116533,6.48480819 51.7461341,6.50399577 51.6538116,6.50399577 L49.2616173,6.50399577 C49.0144313,6.50178182 48.802983,6.41469974 48.6272725,6.2434875 C48.4523065,6.06710938 48.3651958,5.85678402 48.3651958,5.61177341 C48.3651958,5.4398232 48.4106125,5.27820476 48.502935,5.12765607 C48.5952575,4.97932134 48.7188504,4.86567184 48.8737139,4.78744556 L49.1268562,4.65756042 C49.1633384,4.63911082 49.1819519,4.61549534 49.1819519,4.58523801 C49.1819519,4.56974035 49.1774846,4.55276673 49.1685502,4.53431713 L48.9116853,4.03322616 C48.8975391,4.00813472 48.8796703,3.99189908 48.8565896,3.98525722 C48.8469107,3.98009134 48.8364871,3.97787738 48.8253191,3.97787738 C48.8111729,3.97787738 48.7977712,3.98304327 48.7836251,3.99189908 L48.5275046,4.11883228 C48.2483036,4.26052516 48.0256873,4.46642263 47.8589113,4.73652468 C47.6936243,5.00662673 47.6102362,5.29813032 47.6102362,5.61177341 C47.6102362,6.06710938 47.7718006,6.45455086 48.0941847,6.77483581 C48.4180579,7.0929068 48.8067057,7.25157331 49.2616173,7.25157331 L51.6433882,7.25157331 C51.9315236,7.25157331 52.1675415,7.16965711 52.3499529,7.00508673 C52.5457659,7.16965711 52.8175215,7.25157331 53.1637308,7.25157331 L53.3051926,7.25157331 L53.5479114,7.25157331 L59.2011739,7.25157331 L59.2257435,7.25157331 C59.5146235,7.25157331 59.749897,7.16965711 59.9323082,7.00508673 C60.1281212,7.16965711 60.3983879,7.25157331 60.7423635,7.25157331 L60.8845699,7.25157331 L61.1265442,7.25157331 L62.0028631,7.25157331 C62.3118455,7.25157331 62.5605206,7.1615393 62.7473992,6.98073327 C62.9320441,6.7932854 63.023622,6.54753681 63.023622,6.2434875 L63.023622,3.75869621 C63.023622,3.69670557 62.993096,3.66571025 62.9305551,3.66571025" id="Fill-79" fill="#FFFFFF"></path>
            <path d="M3.15877125,1.94251819 L2.60388165,1.94251819 C2.54092584,1.94251819 2.50871589,1.97413361 2.50871589,2.03736445 L2.50871589,6.94829303 C2.50871589,7.20046364 2.42233466,7.41499685 2.2495722,7.5926454 C2.07680974,7.76954124 1.86964119,7.85836546 1.62660248,7.85836546 C1.38429581,7.85836546 1.17639522,7.76954124 1.00363276,7.5926454 C0.829406216,7.41499685 0.741560898,7.20046364 0.741560898,6.94829303 L0.741560898,5.1386866 C0.741560898,5.07319752 0.712279124,5.04007661 0.653715579,5.04007661 L0.0951657615,5.04007661 C0.0314779058,5.04007661 0,5.07319752 0,5.1386866 L0,6.94829303 C0,7.41048036 0.158121573,7.80492036 0.476560853,8.13161306 C0.794268086,8.45830568 1.17785932,8.62165203 1.62660248,8.62165203 C2.07388156,8.62165203 2.45747279,8.45830568 2.77737615,8.13161306 C3.09508339,7.80492036 3.25393701,7.41048036 3.25393701,6.94829303 L3.25393701,2.03736445 C3.25393701,1.97413361 3.2224591,1.94251819 3.15877125,1.94251819" id="Fill-80" fill="#FFFFFF"></path>
            <path d="M62.3920157,8.10787253 L61.9145433,8.10787253 C61.8549449,8.10787253 61.8248031,8.1366442 61.8248031,8.19418747 L61.8248031,8.70043161 C61.8248031,8.76003 61.8549449,8.78948666 61.9145433,8.78948666 L62.3920157,8.78948666 C62.448874,8.78948666 62.4783307,8.76003 62.4783307,8.70043161 L62.4783307,8.19418747 C62.4783307,8.1366442 62.448874,8.10787253 62.3920157,8.10787253" id="Fill-81" fill="#FFFFFF"></path>
        </g>
    </g>
</svg>